<svg preserveAspectRatio="none" overflow="visible" style="display: block;" width="95.9961" height="76.7969" viewBox="0 0 95.9961 76.7969" fill="none" xmlns="http://www.w3.org/2000/svg">
<g id="Frame">
<path id="Vector" d="M81.5967 24.959H14.3994C11.2184 24.959 8.63965 27.5377 8.63965 30.7188V65.2774C8.63965 68.4584 11.2184 71.0371 14.3994 71.0371H81.5967C84.7777 71.0371 87.3565 68.4584 87.3565 65.2774V30.7188C87.3565 27.5377 84.7777 24.959 81.5967 24.959Z" fill="#D9CFC3"/>
<path id="Vector 2" d="M86.3965 16.3193H9.59961C6.94875 16.3193 4.79981 18.4683 4.79981 21.1191V25.919C4.79981 28.5698 6.94875 30.7188 9.59961 30.7188H86.3965C89.0474 30.7188 91.1963 28.5698 91.1963 25.919V21.1191C91.1963 18.4683 89.0474 16.3193 86.3965 16.3193Z" fill="#E6DED4"/>
<g id="Group">
<path id="Icon" d="M27.8389 55.6778C32.0803 55.6778 35.5186 52.2394 35.5186 47.9981C35.5186 43.7567 32.0803 40.3184 27.8389 40.3184C23.5975 40.3184 20.1592 43.7567 20.1592 47.9981C20.1592 52.2394 23.5975 55.6778 27.8389 55.6778Z" fill="#C9BBAA"/>
<path id="Icon 2" d="M47.9981 55.6778C52.2394 55.6778 55.6778 52.2394 55.6778 47.9981C55.6778 43.7567 52.2394 40.3184 47.9981 40.3184C43.7567 40.3184 40.3184 43.7567 40.3184 47.9981C40.3184 52.2394 43.7567 55.6778 47.9981 55.6778Z" fill="#C9BBAA"/>
<path id="Icon 3" d="M68.1573 55.6778C72.3986 55.6778 75.8369 52.2394 75.8369 47.9981C75.8369 43.7567 72.3986 40.3184 68.1573 40.3184C63.9159 40.3184 60.4776 43.7567 60.4776 47.9981C60.4776 52.2394 63.9159 55.6778 68.1573 55.6778Z" fill="#C9BBAA"/>
</g>
<g id="Group 2">
<path id="Icon_2" d="M27.8389 51.3579C29.6945 51.3579 31.1987 49.8537 31.1987 47.9981C31.1987 46.1425 29.6945 44.6382 27.8389 44.6382C25.9833 44.6382 24.479 46.1425 24.479 47.9981C24.479 49.8537 25.9833 51.3579 27.8389 51.3579Z" fill="#BCAD9B"/>
<path id="Icon 2_2" d="M47.9981 51.3579C49.8537 51.3579 51.3579 49.8537 51.3579 47.9981C51.3579 46.1425 49.8537 44.6382 47.9981 44.6382C46.1425 44.6382 44.6382 46.1425 44.6382 47.9981C44.6382 49.8537 46.1425 51.3579 47.9981 51.3579Z" fill="#BCAD9B"/>
<path id="Icon 3_2" d="M68.1573 51.3579C70.0129 51.3579 71.5171 49.8537 71.5171 47.9981C71.5171 46.1425 70.0129 44.6382 68.1573 44.6382C66.3016 44.6382 64.7974 46.1425 64.7974 47.9981C64.7974 49.8537 66.3016 51.3579 68.1573 51.3579Z" fill="#BCAD9B"/>
</g>
</g>
</svg>
